#!OML:ASF E:/inclinewalkrobotboard/Project1/Captureday1/Session1/subject1.ASF
:FULLY-SPECIFIED
:DEGREES
101
root 0 0 0 1.393219252593135 -8.769161134515807 0.9358693411317361
lowerback 1.3936827704647234 -1.2726883729554794 -2.957041604623673
upperback -1.0772429710637972 -1.5720979264963812 2.225104027303314
thorax -1.6635794475982324 -0.7645549291472793 3.9362813172026563
lowerneck -26.49076175647217 -1.8909176305157582 -7.226565483220038
upperneck 12.023378648077276 -0.7113922540471439 4.570835716454908
head 8.04026818045117 -0.18842859740518864 2.6259182872612574
rclavicle -7.119676089252713E-15 -1.4523417295298313E-15
rhumerus -31.611387838041846 -2.4158614058718832 -80.76267249546571
rradius 30.642080687100204
rwrist 17.836914188102874
rhand -18.23974354593811 10.00074440857369
rfingers 7.125019999999949
rthumb 8.039942124974067 -19.831464660705297
lclavicle -2.853044446727562E-15 -9.045496139259863E-16
lhumerus -9.981632712645348 9.691819846787176 89.2294741948815
lradius 59.87544735740093
lwrist -5.3385533767596804
lhand -33.66946207688211 17.175833633930033
lfingers 7.125020000000009
lthumb -6.85286602943115 46.80328223359059
rfemur -6.489416136807165 2.067882484233798 26.022116909739253
rtibia 61.80831062784106
rfoot 5.884390962194493 -0.39929596241539045
rtoes 7.672256694476147
lfemur -19.464246313972392 -3.81089149055221 -17.256216979124826
ltibia 30.78058034978954
lfoot -0.8336384318048253 -3.7807732758792336
ltoes 5.5894753345290145
102
root 0 0 0 1.412938451891232 -8.763438359022294 0.9611699149130112
lowerback 1.4047412167214115 -1.2859194868447934 -2.9659973323476603
upperback -1.051887349955964 -1.5907043605970639 2.2372991176625456
thorax -1.6426784428040577 -0.7732894302971037 3.9532515112704814
lowerneck -26.735275771112565 -1.9206988803470926 -7.219483617128047
upperneck 11.577658948235115 -0.7524832281556288 4.636600147869295
head 7.9105702800969375 -0.1823757471903033 2.635204034385765
rclavicle -5.9240706296886965E-15 -1.0272982987276662E-15
rhumerus -31.94349675392104 -3.6680605475140435 -80.5506663503485
rradius 30.366664251004686
rwrist 18.033599383062693
rhand -17.974741148079477 10.03805927836411
rfingers 7.125019999999944
rthumb 8.2940905291718 -19.785196317290776
lclavicle -2.7664745872938723E-15 -9.350586268638713E-16
lhumerus -10.259348571655517 9.50376004969861 89.41498853291098
lradius 59.83673873767545
lwrist -5.235384559146697
lhand -33.60301586272608 17.215896315138057
lfingers 7.125020000000009
lthumb -6.790041605553168 46.846515230331015
rfemur -14.467462736106022 0.8705084094803484 23.457775401021216
rtibia 68.40370158347362
rfoot 4.476173739522158 -3.5529123693000835
rtoes 10.768093109922711
lfemur -15.160580119716776 -2.962404789851543 -20.346519997367597
ltibia 32.24203533326531
lfoot -2.0244489677967543 -4.4841158740091895
ltoes 7.444290140412573
103
root 0 0 0 1.4405590991300035 -8.753882151219596 0.9924961554666801
lowerback 1.40068933679447 -1.2979972849171857 -2.9868260543980902
upperback -1.0316759602014485 -1.6078526677503302 2.250760006005393
thorax -1.6183054770395906 -0.7808341033545231 3.978886576336015
lowerneck -26.99157661455034 -1.9592883345595435 -7.229429265891185
upperneck 11.056114258631391 -0.810364589776689 4.740731635052394
head 7.755512153490346 -0.17790356250645384 2.6574314159730292
rclavicle -4.343566116235059E-15 -8.096953875749895E-16
rhumerus -32.28496475437865 -4.854712987102117 -80.35627140393855
rradius 30.11394807391883
rwrist 18.28613353427159
rhand -17.709680721530006 10.017656706910783
rfingers 7.1250199999999415
rthumb 8.548589764620147 -19.801031501283624
lclavicle -2.518763479991273E-15 -8.003842104123856E-16
lhumerus -10.451300922388686 9.186468746099834 89.5041401193559
lradius 59.904117949903615
lwrist -5.113946321035894
lhand -33.545879303571496 17.305718863543227
lfingers 7.125020000000009
lthumb -6.7384229542888585 46.93987252108191
rfemur -19.87836619488992 -0.08181233889610517 21.2994998366335
rtibia 71.06433851396436
rfoot 1.7643057802713482 -5.110218312301536
rtoes 9.31907094292508
lfemur -10.284806752763853 -2.541150020835148 -23.926792183093532
ltibia 30.28029795278799
lfoot -6.446507596974307 -3.1979692681729897
ltoes 8.622679786529911
104
root 0 0 0 1.4885122458321398 -8.774208059269043 1.0378316245148258
lowerback 1.3457490909942 -1.317096797134636 -3.027848772456392
upperback -1.0183082743802814 -1.636670444148057 2.2644982653099657
thorax -1.5705544667438684 -0.7933909691704989 4.017199621202593
lowerneck -27.290464545437686 -2.001633322615149 -7.273356503170877
upperneck 10.540553061185712 -0.8656256160075092 4.872138993738881
head 7.612806384616201 -0.17256998983133914 2.695176050425105
rclavicle -3.9003502923457106E-15 -7.952483018323128E-16
rhumerus -32.505567666849366 -5.416351250295259 -80.2666237415467
rradius 30.002555703561846
rwrist 18.53718653473619
rhand -17.5578272859747 9.897247831501247
rfingers 7.125019999999943
rthumb 8.694249081332938 -19.921127328448815
lclavicle -2.4116116938608567E-15 -6.5332220369472435E-16
lhumerus -10.157270090631103 8.960747736111536 89.29988548842027
lradius 60.244154072171966
lwrist -5.122919973569413
lhand -33.600336692607264 17.386954958026966
lfingers 7.125020000000008
lthumb -6.793395019852962 47.01975963468177
rfemur -23.759800517925566 -0.6558750600327041 19.804968195907858
rtibia 70.3476390012002
rfoot -0.7455735777383801 -5.856802274349492
rtoes 6.506989006838081
lfemur -4.582259943599505 -2.4018054646779383 -27.39372437072683
ltibia 27.081442374120996
lfoot -11.871747784716716 -1.5833559351244442
ltoes 8.479896153299034
